<svg width="53" height="51" fill="none" xmlns="http://www.w3.org/2000/svg"><path d="M25.694 51c-.573 0-1.143-.09-1.69-.269-2.35-.765-3.853-2.909-3.83-5.46.021-2.333-.406-4.37-1.268-6.05-1.056-2.06-2.816-3.646-5.23-4.715a1.939 1.939 0 01-.626-.443c-.18-.19-.05.183-.146-.063-.002.265-.096-.246 0 0 .146-.48-.095.047.005-.198.099-.244.243-.466.425-.652.181-.186.396-.333.632-.433a1.87 1.87 0 011.484.012c6.05 4.271 6.845 6.493 8.007 14.22.001.35.11.69.31.972.199.282.48.49.8.595.32.105.665.1.983-.012.319-.113 1.469-.328 1.662-.615 3.656-5.607 2.213-12.47 2.181-12.532a2.085 2.085 0 01.025-2c.171-.303.415-.554.707-.728.293-.174.624-.265.96-.265l16.466.365c.478-.013 2.746-1.279 2.746-2.554V28.9c0-.425-.42-.538-1.29-.85-.868-.312-.81-.412-1.289-.425l-1.463.317a1.896 1.896 0 01-1.369-.59 2.06 2.06 0 01-.566-1.426c0-.535.204-1.047.566-1.426.363-.378.856-.59 1.369-.59.24 0 .479-.05.701-.145.223-.096.425-.237.595-.414.17-.178.306-.388.398-.62.092-.232.139-.48.139-.731 0-.507-.556-1.667-.9-2.025-.344-.358-2.037-.242-2.523-.243h-.385a1.896 1.896 0 01-1.368-.59 2.06 2.06 0 01-.567-1.426c0-.535.204-1.048.567-1.426.362-.378.855-.59 1.368-.59.486 0 .952-.202 1.296-.56.344-.358-.007-.608-.007-1.115s-.686-.992-1.03-1.35c-.344-.359-.729-.84-1.215-.84h-2.638a1.896 1.896 0 01-1.368-.59 2.06 2.06 0 01-.567-1.426c0-.534.204-1.047.567-1.425.363-.379.855-.591 1.368-.591.486 0 .953-.201 1.296-.56.344-.358.537-.844.537-1.35 0-.507-.193-.993-.537-1.351-.343-.358-.812-1.826-1.298-1.826L28.21 2.76a13.89 13.89 0 00-5.04.941l-8.708 3.37c-.468.139-.966 1.355-1.4 1.126a1.99 1.99 0 01-.94-1.095c-.17-.475-.162-1 .022-1.468.185-.47.532-.85.973-1.064l8.707-3.37A17.598 17.598 0 0128.212 0H39.39c.96.002 1.903.256 2.744.738a5.813 5.813 0 012.065 2.022 6.166 6.166 0 01.351 5.709c1.338.69 2.363 1.899 2.856 3.367a6.181 6.181 0 01-.218 4.487c1.337.69 2.361 1.9 2.854 3.367a6.182 6.182 0 01-.217 4.487 5.835 5.835 0 012.63 2.79 6.172 6.172 0 01.395 3.89 5.978 5.978 0 01-2.008 3.303 5.56 5.56 0 01-3.544 1.287H31.864c.874 3.106 1.449 8.18-1.739 13.069a5.404 5.404 0 01-1.915 1.823 5.146 5.146 0 01-2.516.661z" fill="#BE2929"/><path d="M13.058 36H1.942a1.897 1.897 0 01-1.373-.597A2.089 2.089 0 010 33.963V6.037c0-.54.205-1.058.569-1.44A1.897 1.897 0 011.942 4h11.116c.515 0 1.01.215 1.373.597.364.382.569.9.569 1.44v27.926a2.09 2.09 0 01-.569 1.44 1.897 1.897 0 01-1.373.597zm-10.47-2.037h9.92V6.037H2.585l.004 27.926z" fill="#BE2929"/></svg>