<svg width="53" height="51" fill="none" xmlns="http://www.w3.org/2000/svg"><path d="M25.694 0c-.573 0-1.143.09-1.69.269-2.35.765-3.853 2.909-3.83 5.46.021 2.333-.406 4.37-1.268 6.05-1.056 2.06-2.816 3.646-5.23 4.715a1.939 1.939 0 00-.626.443c-.18.19-.05-.183-.146.063-.002-.265-.096.246 0 0 .146.48-.095-.047.005.198.099.244.243.466.425.652.181.186.396.333.632.433a1.87 1.87 0 001.484-.012c6.05-4.271 6.845-6.493 8.007-14.22.001-.35.11-.69.31-.972.199-.282.48-.49.8-.595.32-.105.665-.1.983.012.319.113 1.469.328 1.662.615 3.656 5.607 2.213 12.47 2.181 12.532a2.085 2.085 0 00.025 2c.171.303.415.554.707.728.293.174.624.266.96.266l16.466-.366c.478.013 2.746 1.279 2.746 2.554V22.1c0 .425-.42.538-1.29.85-.868.312-.81.412-1.289.425l-1.463-.317c-.513 0-1.006.212-1.369.59a2.06 2.06 0 00-.566 1.426c0 .535.204 1.047.566 1.426.363.378.856.59 1.369.59.24 0 .479.05.701.145.223.096.425.237.595.414.17.178.306.388.398.62.092.232.139.48.139.731 0 .507-.556 1.667-.9 2.025-.344.358-2.037.242-2.523.243h-.385c-.513 0-1.006.212-1.368.59a2.06 2.06 0 00-.567 1.426c0 .535.204 1.048.567 1.426.362.378.855.59 1.368.59.486 0 .952.202 1.296.56.344.358-.007.608-.007 1.115s-.686.992-1.03 1.35c-.344.359-.729.84-1.215.84h-2.638c-.513 0-1.005.212-1.368.59a2.06 2.06 0 00-.567 1.426c0 .534.204 1.047.567 1.425.363.379.855.591 1.368.591.486 0 .953.201 1.296.56.344.358.537.844.537 1.35 0 .507-.193.993-.537 1.351-.343.358-.812 1.825-1.298 1.825L28.21 48.24a13.891 13.891 0 01-5.04-.941l-8.708-3.37c-.468-.139-.966-1.355-1.4-1.126-.434.229-.77.62-.94 1.095-.17.475-.162 1 .022 1.468.185.47.532.85.973 1.063l8.707 3.37A17.599 17.599 0 0028.212 51H39.39a5.528 5.528 0 002.744-.738 5.813 5.813 0 002.065-2.022 6.166 6.166 0 00.351-5.709c1.338-.69 2.363-1.899 2.856-3.367a6.181 6.181 0 00-.218-4.487c1.337-.69 2.361-1.9 2.854-3.367a6.182 6.182 0 00-.217-4.487 5.835 5.835 0 002.63-2.79 6.172 6.172 0 00.395-3.89 5.978 5.978 0 00-2.008-3.303 5.56 5.56 0 00-3.544-1.287H31.864c.874-3.107 1.449-8.18-1.739-13.069A5.404 5.404 0 0028.21.661 5.147 5.147 0 0025.694 0z" fill="#3A7D29"/><path d="M13.058 15H1.942c-.515 0-1.01.215-1.373.597-.364.382-.569.9-.569 1.44v27.926c0 .54.205 1.058.569 1.44.364.382.858.597 1.373.597h11.116c.515 0 1.01-.215 1.373-.597.364-.382.569-.9.569-1.44V17.037a2.09 2.09 0 00-.569-1.44A1.897 1.897 0 0013.058 15zm-10.47 2.037h9.92v27.926H2.585l.004-27.926z" fill="#3A7D29"/></svg>